<?xml version="1.0" encoding="utf-8"?>
<!-- Generator: Adobe Illustrator 21.0.0, SVG Export Plug-In . SVG Version: 6.00 Build 0)  -->
<svg version="1.1" id="Layer_1" xmlns="http://www.w3.org/2000/svg" xmlns:xlink="http://www.w3.org/1999/xlink" x="0px" y="0px"
	 viewBox="0 0 730 320" style="enable-background:new 0 0 730 320;" xml:space="preserve">
<style type="text/css">
	.st0{fill:#808080;}
	.st1{opacity:0.5;fill:#FF0000;}
	.st2{opacity:0.7;fill:#FF9999;}
	.st3{opacity:0.7;fill:#FBD85F;}
	.st4{fill:none;stroke:#FF8080;stroke-width:2;stroke-linecap:round;stroke-linejoin:round;}
	.st5{fill:none;stroke:#F7C44A;stroke-width:2;stroke-linecap:round;stroke-linejoin:round;}
	.st6{fill:none;stroke:#FF0000;stroke-width:2;stroke-linecap:round;stroke-linejoin:round;}
	.st7{fill:none;stroke:#666666;}
</style>
<g>
	<g>
		<path class="st0" d="M53.8,302.1c0.2-0.8,0.7-1.9,0.9-2.4l0.6-0.1c-0.2,0.6-0.5,1.6-0.6,2.3L53.8,302.1z"/>
		<path class="st0" d="M56.2,305.5c0.2,0.2,0.8,0.4,1.4,0.4c1.1,0,1.5-0.7,1.5-1.3c0-0.9-0.8-1.3-1.7-1.3H57v-0.7h0.5
			c0.6,0,1.4-0.3,1.4-1.1c0-0.5-0.3-1-1.1-1c-0.5,0-1,0.2-1.3,0.4l-0.2-0.6c0.3-0.2,1-0.5,1.7-0.5c1.3,0,1.9,0.8,1.9,1.5
			c0,0.7-0.4,1.2-1.2,1.5v0c0.8,0.2,1.4,0.8,1.4,1.7c0,1-0.8,1.9-2.4,1.9c-0.7,0-1.4-0.2-1.7-0.4L56.2,305.5z"/>
		<path class="st0" d="M61.7,305.9c0.2,0,0.4,0,0.7,0c0.5-0.1,1-0.3,1.4-0.6c0.4-0.4,0.7-1,0.9-1.7h0c-0.4,0.4-0.9,0.7-1.5,0.7
			c-1.2,0-1.9-0.9-1.9-2c0-1.2,0.9-2.3,2.2-2.3c1.3,0,2.1,1.1,2.1,2.7c0,1.4-0.5,2.4-1.1,3c-0.5,0.5-1.2,0.8-1.9,0.9
			c-0.3,0-0.6,0.1-0.8,0V305.9z M62,302.1c0,0.8,0.5,1.4,1.2,1.4c0.6,0,1-0.3,1.3-0.7c0-0.1,0.1-0.2,0.1-0.3c0-1.1-0.4-2-1.3-2
			C62.5,300.6,62,301.2,62,302.1z"/>
	</g>
</g>
<g>
	<g>
		<path class="st0" d="M73,302.1c0.2-0.8,0.7-1.9,0.9-2.4l0.6-0.1c-0.2,0.6-0.5,1.6-0.6,2.3L73,302.1z"/>
		<path class="st0" d="M77.9,306.5v-1.8h-3v-0.6l2.9-4.1h0.9v4h0.9v0.7h-0.9v1.8H77.9z M77.9,304v-2.2c0-0.3,0-0.7,0-1h0
			c-0.2,0.4-0.4,0.7-0.5,1l-1.6,2.2v0H77.9z"/>
		<path class="st0" d="M84.6,303.2c0,2.2-0.8,3.4-2.3,3.4c-1.3,0-2.1-1.2-2.1-3.3c0-2.2,0.9-3.4,2.3-3.4
			C83.8,299.9,84.6,301.1,84.6,303.2z M81.1,303.3c0,1.7,0.5,2.6,1.3,2.6c0.9,0,1.3-1,1.3-2.7c0-1.6-0.4-2.6-1.3-2.6
			C81.7,300.6,81.1,301.5,81.1,303.3z"/>
	</g>
</g>
<g>
	<g>
		<path class="st0" d="M91.8,302.1c0.2-0.8,0.7-1.9,0.9-2.4l0.6-0.1c-0.2,0.6-0.5,1.6-0.6,2.3L91.8,302.1z"/>
		<path class="st0" d="M96.7,306.5v-1.8h-3v-0.6l2.9-4.1h0.9v4h0.9v0.7h-0.9v1.8H96.7z M96.7,304v-2.2c0-0.3,0-0.7,0-1h0
			c-0.2,0.4-0.4,0.7-0.5,1l-1.6,2.2v0H96.7z"/>
		<path class="st0" d="M101,300.8L101,300.8l-1.1,0.6l-0.2-0.7l1.4-0.8h0.7v6.5H101V300.8z"/>
	</g>
</g>
<g>
	<g>
		<path class="st0" d="M110.9,302.1c0.2-0.8,0.7-1.9,0.9-2.4l0.6-0.1c-0.2,0.6-0.5,1.6-0.6,2.3L110.9,302.1z"/>
		<path class="st0" d="M115.8,306.5v-1.8h-3v-0.6l2.9-4.1h0.9v4h0.9v0.7h-0.9v1.8H115.8z M115.8,304v-2.2c0-0.3,0-0.7,0-1h0
			c-0.2,0.4-0.4,0.7-0.5,1l-1.6,2.2v0H115.8z"/>
		<path class="st0" d="M118.2,306.5V306l0.7-0.7c1.7-1.6,2.4-2.4,2.4-3.4c0-0.7-0.3-1.3-1.3-1.3c-0.6,0-1.1,0.3-1.4,0.5l-0.3-0.6
			c0.4-0.4,1.1-0.7,1.8-0.7c1.4,0,2,1,2,1.9c0,1.2-0.9,2.2-2.2,3.5l-0.5,0.5v0h2.9v0.7H118.2z"/>
	</g>
</g>
<g>
	<g>
		<path class="st0" d="M129.5,302.1c0.2-0.8,0.7-1.9,0.9-2.4l0.6-0.1c-0.2,0.6-0.5,1.6-0.6,2.3L129.5,302.1z"/>
		<path class="st0" d="M134.4,306.5v-1.8h-3v-0.6l2.9-4.1h0.9v4h0.9v0.7h-0.9v1.8H134.4z M134.4,304v-2.2c0-0.3,0-0.7,0-1h0
			c-0.2,0.4-0.4,0.7-0.5,1l-1.6,2.2v0H134.4z"/>
		<path class="st0" d="M137,305.5c0.2,0.2,0.8,0.4,1.4,0.4c1.1,0,1.5-0.7,1.5-1.3c0-0.9-0.8-1.3-1.7-1.3h-0.5v-0.7h0.5
			c0.6,0,1.4-0.3,1.4-1.1c0-0.5-0.3-1-1.1-1c-0.5,0-1,0.2-1.3,0.4l-0.2-0.6c0.3-0.2,1-0.5,1.7-0.5c1.3,0,1.9,0.8,1.9,1.5
			c0,0.7-0.4,1.2-1.2,1.5v0c0.8,0.2,1.4,0.8,1.4,1.7c0,1-0.8,1.9-2.4,1.9c-0.7,0-1.4-0.2-1.7-0.4L137,305.5z"/>
	</g>
</g>
<g>
	<g>
		<path class="st0" d="M148.6,302.1c0.2-0.8,0.7-1.9,0.9-2.4l0.6-0.1c-0.2,0.6-0.5,1.6-0.6,2.3L148.6,302.1z"/>
		<path class="st0" d="M153.5,306.5v-1.8h-3v-0.6l2.9-4.1h0.9v4h0.9v0.7h-0.9v1.8H153.5z M153.5,304v-2.2c0-0.3,0-0.7,0-1h0
			c-0.2,0.4-0.4,0.7-0.5,1l-1.6,2.2v0H153.5z"/>
		<path class="st0" d="M158.7,306.5v-1.8h-3v-0.6l2.9-4.1h0.9v4h0.9v0.7h-0.9v1.8H158.7z M158.7,304v-2.2c0-0.3,0-0.7,0-1h0
			c-0.2,0.4-0.4,0.7-0.5,1l-1.6,2.2v0H158.7z"/>
	</g>
</g>
<g>
	<g>
		<path class="st0" d="M166.6,302.1c0.2-0.8,0.7-1.9,0.9-2.4l0.6-0.1c-0.2,0.6-0.5,1.6-0.6,2.3L166.6,302.1z"/>
		<path class="st0" d="M171.5,306.5v-1.8h-3v-0.6l2.9-4.1h0.9v4h0.9v0.7h-0.9v1.8H171.5z M171.5,304v-2.2c0-0.3,0-0.7,0-1h0
			c-0.2,0.4-0.4,0.7-0.5,1l-1.6,2.2v0H171.5z"/>
		<path class="st0" d="M177.8,300.7h-2.5l-0.2,1.7c0.1,0,0.3,0,0.5,0c0.5,0,1,0.1,1.4,0.3c0.5,0.3,0.9,0.8,0.9,1.7
			c0,1.3-1,2.2-2.4,2.2c-0.7,0-1.3-0.2-1.6-0.4l0.2-0.7c0.3,0.2,0.8,0.4,1.4,0.4c0.8,0,1.5-0.5,1.5-1.4c0-0.8-0.6-1.4-1.9-1.4
			c-0.4,0-0.7,0-0.9,0.1l0.4-3.1h3.1V300.7z"/>
	</g>
</g>
<g>
	<g>
		<path class="st0" d="M185.6,302.1c0.2-0.8,0.7-1.9,0.9-2.4l0.6-0.1c-0.2,0.6-0.5,1.6-0.6,2.3L185.6,302.1z"/>
		<path class="st0" d="M190.5,306.5v-1.8h-3v-0.6l2.9-4.1h0.9v4h0.9v0.7h-0.9v1.8H190.5z M190.5,304v-2.2c0-0.3,0-0.7,0-1h0
			c-0.2,0.4-0.4,0.7-0.5,1l-1.6,2.2v0H190.5z"/>
		<path class="st0" d="M196.6,300.6c-0.2,0-0.4,0-0.7,0c-1.4,0.2-2.1,1.2-2.3,2.3h0c0.3-0.4,0.8-0.7,1.6-0.7c1.1,0,2,0.8,2,2.1
			c0,1.2-0.8,2.3-2.2,2.3c-1.4,0-2.3-1.1-2.3-2.8c0-1.3,0.5-2.3,1.1-2.9c0.5-0.5,1.3-0.9,2.1-1c0.3,0,0.5,0,0.6,0V300.6z
			 M196.4,304.4c0-0.9-0.5-1.5-1.3-1.5c-0.5,0-1,0.3-1.3,0.8c-0.1,0.1-0.1,0.2-0.1,0.4c0,1.1,0.5,1.9,1.4,1.9
			C195.9,305.9,196.4,305.3,196.4,304.4z"/>
	</g>
</g>
<g>
	<g>
		<path class="st0" d="M205.1,302.1c0.2-0.8,0.7-1.9,0.9-2.4l0.6-0.1c-0.2,0.6-0.5,1.6-0.6,2.3L205.1,302.1z"/>
		<path class="st0" d="M210,306.5v-1.8h-3v-0.6l2.9-4.1h0.9v4h0.9v0.7h-0.9v1.8H210z M210,304v-2.2c0-0.3,0-0.7,0-1h0
			c-0.2,0.4-0.4,0.7-0.5,1l-1.6,2.2v0H210z"/>
		<path class="st0" d="M216.7,300v0.6l-2.8,5.9h-0.9l2.8-5.7v0h-3.2V300H216.7z"/>
	</g>
</g>
<g>
	<g>
		<path class="st0" d="M224.5,302.1c0.2-0.8,0.7-1.9,0.9-2.4l0.6-0.1c-0.2,0.6-0.5,1.6-0.6,2.3L224.5,302.1z"/>
		<path class="st0" d="M229.4,306.5v-1.8h-3v-0.6l2.9-4.1h0.9v4h0.9v0.7h-0.9v1.8H229.4z M229.4,304v-2.2c0-0.3,0-0.7,0-1h0
			c-0.2,0.4-0.4,0.7-0.5,1l-1.6,2.2v0H229.4z"/>
		<path class="st0" d="M231.7,304.8c0-0.8,0.5-1.4,1.3-1.7l0,0c-0.7-0.3-1-0.9-1-1.5c0-1,0.9-1.7,2-1.7c1.3,0,1.9,0.8,1.9,1.6
			c0,0.5-0.3,1.1-1.1,1.5v0c0.8,0.3,1.3,0.9,1.3,1.7c0,1.1-1,1.9-2.2,1.9C232.6,306.6,231.7,305.8,231.7,304.8z M235.2,304.8
			c0-0.8-0.5-1.2-1.4-1.4c-0.8,0.2-1.2,0.7-1.2,1.3c0,0.7,0.5,1.2,1.3,1.2C234.7,306,235.2,305.5,235.2,304.8z M232.8,301.6
			c0,0.6,0.5,1,1.2,1.2c0.6-0.2,1-0.6,1-1.2c0-0.5-0.3-1.1-1.1-1.1C233.2,300.5,232.8,301,232.8,301.6z"/>
	</g>
</g>
<g>
	<g>
		<path class="st0" d="M242.9,302.1c0.2-0.8,0.7-1.9,0.9-2.4l0.6-0.1c-0.2,0.6-0.5,1.6-0.6,2.3L242.9,302.1z"/>
		<path class="st0" d="M247.8,306.5v-1.8h-3v-0.6l2.9-4.1h0.9v4h0.9v0.7h-0.9v1.8H247.8z M247.8,304v-2.2c0-0.3,0-0.7,0-1h0
			c-0.2,0.4-0.4,0.7-0.5,1l-1.6,2.2v0H247.8z"/>
		<path class="st0" d="M250.7,305.9c0.2,0,0.4,0,0.7,0c0.5-0.1,1-0.3,1.4-0.6c0.4-0.4,0.7-1,0.9-1.7h0c-0.4,0.4-0.9,0.7-1.5,0.7
			c-1.2,0-1.9-0.9-1.9-2c0-1.2,0.9-2.3,2.2-2.3c1.3,0,2.1,1.1,2.1,2.7c0,1.4-0.5,2.4-1.1,3c-0.5,0.5-1.2,0.8-1.9,0.9
			c-0.3,0-0.6,0.1-0.8,0V305.9z M251,302.1c0,0.8,0.5,1.4,1.2,1.4c0.6,0,1-0.3,1.3-0.7c0-0.1,0.1-0.2,0.1-0.3c0-1.1-0.4-2-1.3-2
			C251.5,300.6,251,301.2,251,302.1z"/>
	</g>
</g>
<g>
	<g>
		<path class="st0" d="M261.9,302.1c0.2-0.8,0.7-1.9,0.9-2.4l0.6-0.1c-0.2,0.6-0.5,1.6-0.6,2.3L261.9,302.1z"/>
		<path class="st0" d="M267.9,300.7h-2.5l-0.2,1.7c0.1,0,0.3,0,0.5,0c0.5,0,1,0.1,1.4,0.3c0.5,0.3,0.9,0.8,0.9,1.7
			c0,1.3-1,2.2-2.4,2.2c-0.7,0-1.3-0.2-1.6-0.4l0.2-0.7c0.3,0.2,0.8,0.4,1.4,0.4c0.8,0,1.5-0.5,1.5-1.4c0-0.8-0.6-1.4-1.9-1.4
			c-0.4,0-0.7,0-0.9,0.1l0.4-3.1h3.1V300.7z"/>
		<path class="st0" d="M273.5,303.2c0,2.2-0.8,3.4-2.3,3.4c-1.3,0-2.1-1.2-2.1-3.3c0-2.2,0.9-3.4,2.3-3.4
			C272.7,299.9,273.5,301.1,273.5,303.2z M270,303.3c0,1.7,0.5,2.6,1.3,2.6c0.9,0,1.3-1,1.3-2.7c0-1.6-0.4-2.6-1.3-2.6
			C270.5,300.6,270,301.5,270,303.3z"/>
	</g>
</g>
<g>
	<g>
		<path class="st0" d="M280.6,302.1c0.2-0.8,0.7-1.9,0.9-2.4l0.6-0.1c-0.2,0.6-0.5,1.6-0.6,2.3L280.6,302.1z"/>
		<path class="st0" d="M286.7,300.7h-2.5l-0.2,1.7c0.1,0,0.3,0,0.5,0c0.5,0,1,0.1,1.4,0.3c0.5,0.3,0.9,0.8,0.9,1.7
			c0,1.3-1,2.2-2.4,2.2c-0.7,0-1.3-0.2-1.6-0.4l0.2-0.7c0.3,0.2,0.8,0.4,1.4,0.4c0.8,0,1.5-0.5,1.5-1.4c0-0.8-0.6-1.4-1.9-1.4
			c-0.4,0-0.7,0-0.9,0.1l0.4-3.1h3.1V300.7z"/>
		<path class="st0" d="M289.8,300.8L289.8,300.8l-1.1,0.6l-0.2-0.7l1.4-0.8h0.7v6.5h-0.8V300.8z"/>
	</g>
</g>
<g>
	<g>
		<path class="st0" d="M299.6,302.1c0.2-0.8,0.7-1.9,0.9-2.4l0.6-0.1c-0.2,0.6-0.5,1.6-0.6,2.3L299.6,302.1z"/>
		<path class="st0" d="M305.7,300.7h-2.5l-0.2,1.7c0.1,0,0.3,0,0.5,0c0.5,0,1,0.1,1.4,0.3c0.5,0.3,0.9,0.8,0.9,1.7
			c0,1.3-1,2.2-2.4,2.2c-0.7,0-1.3-0.2-1.6-0.4l0.2-0.7c0.3,0.2,0.8,0.4,1.4,0.4c0.8,0,1.5-0.5,1.5-1.4c0-0.8-0.6-1.4-1.9-1.4
			c-0.4,0-0.7,0-0.9,0.1l0.4-3.1h3.1V300.7z"/>
		<path class="st0" d="M306.9,306.5V306l0.7-0.7c1.7-1.6,2.4-2.4,2.4-3.4c0-0.7-0.3-1.3-1.3-1.3c-0.6,0-1.1,0.3-1.4,0.5l-0.3-0.6
			c0.4-0.4,1.1-0.7,1.8-0.7c1.4,0,2,1,2,1.9c0,1.2-0.9,2.2-2.2,3.5l-0.5,0.5v0h2.9v0.7H306.9z"/>
	</g>
</g>
<g>
	<g>
		<path class="st0" d="M318.8,302.1c0.2-0.8,0.7-1.9,0.9-2.4l0.6-0.1c-0.2,0.6-0.5,1.6-0.6,2.3L318.8,302.1z"/>
		<path class="st0" d="M324.8,300.7h-2.5l-0.2,1.7c0.1,0,0.3,0,0.5,0c0.5,0,1,0.1,1.4,0.3c0.5,0.3,0.9,0.8,0.9,1.7
			c0,1.3-1,2.2-2.4,2.2c-0.7,0-1.3-0.2-1.6-0.4l0.2-0.7c0.3,0.2,0.8,0.4,1.4,0.4c0.8,0,1.5-0.5,1.5-1.4c0-0.8-0.6-1.4-1.9-1.4
			c-0.4,0-0.7,0-0.9,0.1l0.4-3.1h3.1V300.7z"/>
		<path class="st0" d="M326.3,305.5c0.2,0.2,0.8,0.4,1.4,0.4c1.1,0,1.5-0.7,1.5-1.3c0-0.9-0.8-1.3-1.7-1.3H327v-0.7h0.5
			c0.6,0,1.4-0.3,1.4-1.1c0-0.5-0.3-1-1.1-1c-0.5,0-1,0.2-1.3,0.4l-0.2-0.6c0.3-0.2,1-0.5,1.7-0.5c1.3,0,1.9,0.8,1.9,1.5
			c0,0.7-0.4,1.2-1.2,1.5v0c0.8,0.2,1.4,0.8,1.4,1.7c0,1-0.8,1.9-2.4,1.9c-0.7,0-1.4-0.2-1.7-0.4L326.3,305.5z"/>
	</g>
</g>
<g>
	<g>
		<path class="st0" d="M337.5,302.1c0.2-0.8,0.7-1.9,0.9-2.4l0.6-0.1c-0.2,0.6-0.5,1.6-0.6,2.3L337.5,302.1z"/>
		<path class="st0" d="M343.6,300.7h-2.5l-0.2,1.7c0.1,0,0.3,0,0.5,0c0.5,0,1,0.1,1.4,0.3c0.5,0.3,0.9,0.8,0.9,1.7
			c0,1.3-1,2.2-2.4,2.2c-0.7,0-1.3-0.2-1.6-0.4l0.2-0.7c0.3,0.2,0.8,0.4,1.4,0.4c0.8,0,1.5-0.5,1.5-1.4c0-0.8-0.6-1.4-1.9-1.4
			c-0.4,0-0.7,0-0.9,0.1l0.4-3.1h3.1V300.7z"/>
		<path class="st0" d="M347.5,306.5v-1.8h-3v-0.6l2.9-4.1h0.9v4h0.9v0.7h-0.9v1.8H347.5z M347.5,304v-2.2c0-0.3,0-0.7,0-1h0
			c-0.2,0.4-0.4,0.7-0.5,1l-1.6,2.2v0H347.5z"/>
	</g>
</g>
<g>
	<g>
		<path class="st0" d="M355.8,302.1c0.2-0.8,0.7-1.9,0.9-2.4l0.6-0.1c-0.2,0.6-0.5,1.6-0.6,2.3L355.8,302.1z"/>
		<path class="st0" d="M361.8,300.7h-2.5l-0.2,1.7c0.1,0,0.3,0,0.5,0c0.5,0,1,0.1,1.4,0.3c0.5,0.3,0.9,0.8,0.9,1.7
			c0,1.3-1,2.2-2.4,2.2c-0.7,0-1.3-0.2-1.6-0.4l0.2-0.7c0.3,0.2,0.8,0.4,1.4,0.4c0.8,0,1.5-0.5,1.5-1.4c0-0.8-0.6-1.4-1.9-1.4
			c-0.4,0-0.7,0-0.9,0.1l0.4-3.1h3.1V300.7z"/>
		<path class="st0" d="M366.9,300.7h-2.5l-0.2,1.7c0.1,0,0.3,0,0.5,0c0.5,0,1,0.1,1.4,0.3c0.5,0.3,0.9,0.8,0.9,1.7
			c0,1.3-1,2.2-2.4,2.2c-0.7,0-1.3-0.2-1.6-0.4l0.2-0.7c0.3,0.2,0.8,0.4,1.4,0.4c0.8,0,1.5-0.5,1.5-1.4c0-0.8-0.6-1.4-1.9-1.4
			c-0.4,0-0.7,0-0.9,0.1l0.4-3.1h3.1V300.7z"/>
	</g>
</g>
<g>
	<g>
		<path class="st0" d="M374.9,302.1c0.2-0.8,0.7-1.9,0.9-2.4l0.6-0.1c-0.2,0.6-0.5,1.6-0.6,2.3L374.9,302.1z"/>
		<path class="st0" d="M380.9,300.7h-2.5l-0.2,1.7c0.1,0,0.3,0,0.5,0c0.5,0,1,0.1,1.4,0.3c0.5,0.3,0.9,0.8,0.9,1.7
			c0,1.3-1,2.2-2.4,2.2c-0.7,0-1.3-0.2-1.6-0.4l0.2-0.7c0.3,0.2,0.8,0.4,1.4,0.4c0.8,0,1.5-0.5,1.5-1.4c0-0.8-0.6-1.4-1.9-1.4
			c-0.4,0-0.7,0-0.9,0.1l0.4-3.1h3.1V300.7z"/>
		<path class="st0" d="M385.9,300.6c-0.2,0-0.4,0-0.7,0c-1.4,0.2-2.1,1.2-2.3,2.3h0c0.3-0.4,0.8-0.7,1.6-0.7c1.1,0,2,0.8,2,2.1
			c0,1.2-0.8,2.3-2.2,2.3c-1.4,0-2.3-1.1-2.3-2.8c0-1.3,0.5-2.3,1.1-2.9c0.5-0.5,1.3-0.9,2.1-1c0.3,0,0.5,0,0.6,0V300.6z
			 M385.6,304.4c0-0.9-0.5-1.5-1.3-1.5c-0.5,0-1,0.3-1.3,0.8c-0.1,0.1-0.1,0.2-0.1,0.4c0,1.1,0.5,1.9,1.4,1.9
			C385.1,305.9,385.6,305.3,385.6,304.4z"/>
	</g>
</g>
<g>
	<g>
		<path class="st0" d="M394.6,302.1c0.2-0.8,0.7-1.9,0.9-2.4l0.6-0.1c-0.2,0.6-0.5,1.6-0.6,2.3L394.6,302.1z"/>
		<path class="st0" d="M400.7,300.7h-2.5l-0.2,1.7c0.1,0,0.3,0,0.5,0c0.5,0,1,0.1,1.4,0.3c0.5,0.3,0.9,0.8,0.9,1.7
			c0,1.3-1,2.2-2.4,2.2c-0.7,0-1.3-0.2-1.6-0.4l0.2-0.7c0.3,0.2,0.8,0.4,1.4,0.4c0.8,0,1.5-0.5,1.5-1.4c0-0.8-0.6-1.4-1.9-1.4
			c-0.4,0-0.7,0-0.9,0.1l0.4-3.1h3.1V300.7z"/>
		<path class="st0" d="M406.2,300v0.6l-2.8,5.9h-0.9l2.8-5.7v0h-3.2V300H406.2z"/>
	</g>
</g>
<g>
	<g>
		<path class="st0" d="M413,302.1c0.2-0.8,0.7-1.9,0.9-2.4l0.6-0.1c-0.2,0.6-0.5,1.6-0.6,2.3L413,302.1z"/>
		<path class="st0" d="M419.1,300.7h-2.5l-0.2,1.7c0.1,0,0.3,0,0.5,0c0.5,0,1,0.1,1.4,0.3c0.5,0.3,0.9,0.8,0.9,1.7
			c0,1.3-1,2.2-2.4,2.2c-0.7,0-1.3-0.2-1.6-0.4l0.2-0.7c0.3,0.2,0.8,0.4,1.4,0.4c0.8,0,1.5-0.5,1.5-1.4c0-0.8-0.6-1.4-1.9-1.4
			c-0.4,0-0.7,0-0.9,0.1l0.4-3.1h3.1V300.7z"/>
		<path class="st0" d="M420.2,304.8c0-0.8,0.5-1.4,1.3-1.7l0,0c-0.7-0.3-1-0.9-1-1.5c0-1,0.9-1.7,2-1.7c1.3,0,1.9,0.8,1.9,1.6
			c0,0.5-0.3,1.1-1.1,1.5v0c0.8,0.3,1.3,0.9,1.3,1.7c0,1.1-1,1.9-2.2,1.9C421.1,306.6,420.2,305.8,420.2,304.8z M423.7,304.8
			c0-0.8-0.5-1.2-1.4-1.4c-0.8,0.2-1.2,0.7-1.2,1.3c0,0.7,0.5,1.2,1.3,1.2C423.2,306,423.7,305.5,423.7,304.8z M421.3,301.6
			c0,0.6,0.5,1,1.2,1.2c0.6-0.2,1-0.6,1-1.2c0-0.5-0.3-1.1-1.1-1.1C421.7,300.5,421.3,301,421.3,301.6z"/>
	</g>
</g>
<g>
	<g>
		<path class="st0" d="M432.1,302.1c0.2-0.8,0.7-1.9,0.9-2.4l0.6-0.1c-0.2,0.6-0.5,1.6-0.6,2.3L432.1,302.1z"/>
		<path class="st0" d="M438.2,300.7h-2.5l-0.2,1.7c0.1,0,0.3,0,0.5,0c0.5,0,1,0.1,1.4,0.3c0.5,0.3,0.9,0.8,0.9,1.7
			c0,1.3-1,2.2-2.4,2.2c-0.7,0-1.3-0.2-1.6-0.4l0.2-0.7c0.3,0.2,0.8,0.4,1.4,0.4c0.8,0,1.5-0.5,1.5-1.4c0-0.8-0.6-1.4-1.9-1.4
			c-0.4,0-0.7,0-0.9,0.1l0.4-3.1h3.1V300.7z"/>
		<path class="st0" d="M439.9,305.9c0.2,0,0.4,0,0.7,0c0.5-0.1,1-0.3,1.4-0.6c0.4-0.4,0.7-1,0.9-1.7h0c-0.4,0.4-0.9,0.7-1.5,0.7
			c-1.2,0-1.9-0.9-1.9-2c0-1.2,0.9-2.3,2.2-2.3c1.3,0,2.1,1.1,2.1,2.7c0,1.4-0.5,2.4-1.1,3c-0.5,0.5-1.2,0.8-1.9,0.9
			c-0.3,0-0.6,0.1-0.8,0V305.9z M440.3,302.1c0,0.8,0.5,1.4,1.2,1.4c0.6,0,1-0.3,1.3-0.7c0-0.1,0.1-0.2,0.1-0.3c0-1.1-0.4-2-1.3-2
			C440.8,300.6,440.3,301.2,440.3,302.1z"/>
	</g>
</g>
<g>
	<g>
		<path class="st0" d="M451.1,302.1c0.2-0.8,0.7-1.9,0.9-2.4l0.6-0.1c-0.2,0.6-0.5,1.6-0.6,2.3L451.1,302.1z"/>
		<path class="st0" d="M457,300.6c-0.2,0-0.4,0-0.7,0c-1.4,0.2-2.1,1.2-2.3,2.3h0c0.3-0.4,0.8-0.7,1.6-0.7c1.1,0,2,0.8,2,2.1
			c0,1.2-0.8,2.3-2.2,2.3c-1.4,0-2.3-1.1-2.3-2.8c0-1.3,0.5-2.3,1.1-2.9c0.5-0.5,1.3-0.9,2.1-1c0.3,0,0.5,0,0.6,0V300.6z
			 M456.8,304.4c0-0.9-0.5-1.5-1.3-1.5c-0.5,0-1,0.3-1.3,0.8c-0.1,0.1-0.1,0.2-0.1,0.4c0,1.1,0.5,1.9,1.4,1.9
			C456.3,305.9,456.8,305.3,456.8,304.4z"/>
		<path class="st0" d="M462.8,303.2c0,2.2-0.8,3.4-2.3,3.4c-1.3,0-2.1-1.2-2.1-3.3c0-2.2,0.9-3.4,2.3-3.4
			C462,299.9,462.8,301.1,462.8,303.2z M459.2,303.3c0,1.7,0.5,2.6,1.3,2.6c0.9,0,1.3-1,1.3-2.7c0-1.6-0.4-2.6-1.3-2.6
			C459.8,300.6,459.2,301.5,459.2,303.3z"/>
	</g>
</g>
<g>
	<g>
		<path class="st0" d="M469.8,302.1c0.2-0.8,0.7-1.9,0.9-2.4l0.6-0.1c-0.2,0.6-0.5,1.6-0.6,2.3L469.8,302.1z"/>
		<path class="st0" d="M475.6,300.6c-0.2,0-0.4,0-0.7,0c-1.4,0.2-2.1,1.2-2.3,2.3h0c0.3-0.4,0.8-0.7,1.6-0.7c1.1,0,2,0.8,2,2.1
			c0,1.2-0.8,2.3-2.2,2.3c-1.4,0-2.3-1.1-2.3-2.8c0-1.3,0.5-2.3,1.1-2.9c0.5-0.5,1.3-0.9,2.1-1c0.3,0,0.5,0,0.6,0V300.6z
			 M475.4,304.4c0-0.9-0.5-1.5-1.3-1.5c-0.5,0-1,0.3-1.3,0.8c-0.1,0.1-0.1,0.2-0.1,0.4c0,1.1,0.5,1.9,1.4,1.9
			C474.9,305.9,475.4,305.3,475.4,304.4z"/>
		<path class="st0" d="M479,300.8L479,300.8l-1.1,0.6l-0.2-0.7l1.4-0.8h0.8v6.5H479V300.8z"/>
	</g>
</g>
<g>
	<g>
		<path class="st0" d="M489.1,302.1c0.2-0.8,0.7-1.9,0.9-2.4l0.6-0.1c-0.2,0.6-0.5,1.6-0.6,2.3L489.1,302.1z"/>
		<path class="st0" d="M495,300.6c-0.2,0-0.4,0-0.7,0c-1.4,0.2-2.1,1.2-2.3,2.3h0c0.3-0.4,0.8-0.7,1.6-0.7c1.1,0,2,0.8,2,2.1
			c0,1.2-0.8,2.3-2.2,2.3c-1.4,0-2.3-1.1-2.3-2.8c0-1.3,0.5-2.3,1.1-2.9c0.5-0.5,1.3-0.9,2.1-1c0.3,0,0.5,0,0.6,0V300.6z
			 M494.8,304.4c0-0.9-0.5-1.5-1.3-1.5c-0.5,0-1,0.3-1.3,0.8c-0.1,0.1-0.1,0.2-0.1,0.4c0,1.1,0.5,1.9,1.4,1.9
			C494.3,305.9,494.8,305.3,494.8,304.4z"/>
		<path class="st0" d="M496.4,306.5V306l0.7-0.7c1.7-1.6,2.4-2.4,2.4-3.4c0-0.7-0.3-1.3-1.3-1.3c-0.6,0-1.1,0.3-1.4,0.5l-0.3-0.6
			c0.5-0.4,1.1-0.7,1.8-0.7c1.4,0,2,1,2,1.9c0,1.2-0.9,2.2-2.2,3.5l-0.5,0.5v0h2.9v0.7H496.4z"/>
	</g>
</g>
<g>
	<g>
		<path class="st0" d="M508,302.1c0.2-0.8,0.7-1.9,0.9-2.4l0.6-0.1c-0.2,0.6-0.5,1.6-0.6,2.3L508,302.1z"/>
		<path class="st0" d="M513.9,300.6c-0.2,0-0.4,0-0.7,0c-1.4,0.2-2.1,1.2-2.3,2.3h0c0.3-0.4,0.8-0.7,1.6-0.7c1.1,0,2,0.8,2,2.1
			c0,1.2-0.8,2.3-2.2,2.3c-1.4,0-2.3-1.1-2.3-2.8c0-1.3,0.5-2.3,1.1-2.9c0.5-0.5,1.3-0.9,2.1-1c0.3,0,0.5,0,0.6,0V300.6z
			 M513.6,304.4c0-0.9-0.5-1.5-1.3-1.5c-0.5,0-1,0.3-1.3,0.8c-0.1,0.1-0.1,0.2-0.1,0.4c0,1.1,0.5,1.9,1.4,1.9
			C513.1,305.9,513.6,305.3,513.6,304.4z"/>
		<path class="st0" d="M515.5,305.5c0.2,0.2,0.8,0.4,1.4,0.4c1.1,0,1.5-0.7,1.5-1.3c0-0.9-0.8-1.3-1.7-1.3h-0.5v-0.7h0.5
			c0.6,0,1.4-0.3,1.4-1.1c0-0.5-0.3-1-1.1-1c-0.5,0-1,0.2-1.3,0.4l-0.2-0.6c0.3-0.2,1-0.5,1.7-0.5c1.3,0,1.9,0.8,1.9,1.5
			c0,0.7-0.4,1.2-1.2,1.5v0c0.8,0.2,1.4,0.8,1.4,1.7c0,1-0.8,1.9-2.4,1.9c-0.7,0-1.4-0.2-1.7-0.4L515.5,305.5z"/>
	</g>
</g>
<g>
	<g>
		<path class="st0" d="M526.1,302.1c0.2-0.8,0.7-1.9,0.9-2.4l0.6-0.1c-0.2,0.6-0.5,1.6-0.6,2.3L526.1,302.1z"/>
		<path class="st0" d="M532,300.6c-0.2,0-0.4,0-0.7,0c-1.4,0.2-2.1,1.2-2.3,2.3h0c0.3-0.4,0.8-0.7,1.6-0.7c1.1,0,2,0.8,2,2.1
			c0,1.2-0.8,2.3-2.2,2.3c-1.4,0-2.3-1.1-2.3-2.8c0-1.3,0.5-2.3,1.1-2.9c0.5-0.5,1.3-0.9,2.1-1c0.3,0,0.5,0,0.6,0V300.6z
			 M531.8,304.4c0-0.9-0.5-1.5-1.3-1.5c-0.5,0-1,0.3-1.3,0.8c-0.1,0.1-0.1,0.2-0.1,0.4c0,1.1,0.5,1.9,1.4,1.9
			C531.3,305.9,531.8,305.3,531.8,304.4z"/>
		<path class="st0" d="M536.2,306.5v-1.8h-3v-0.6l2.9-4.1h0.9v4h0.9v0.7H537v1.8H536.2z M536.2,304v-2.2c0-0.3,0-0.7,0-1h0
			c-0.2,0.4-0.4,0.7-0.5,1L534,304v0H536.2z"/>
	</g>
</g>
<g>
	<g>
		<path class="st0" d="M545.4,302.1c0.2-0.8,0.7-1.9,0.9-2.4l0.6-0.1c-0.2,0.6-0.5,1.6-0.6,2.3L545.4,302.1z"/>
		<path class="st0" d="M551.3,300.6c-0.2,0-0.4,0-0.7,0c-1.4,0.2-2.1,1.2-2.3,2.3h0c0.3-0.4,0.8-0.7,1.6-0.7c1.1,0,2,0.8,2,2.1
			c0,1.2-0.8,2.3-2.2,2.3c-1.4,0-2.3-1.1-2.3-2.8c0-1.3,0.5-2.3,1.1-2.9c0.5-0.5,1.3-0.9,2.1-1c0.3,0,0.5,0,0.6,0V300.6z M551,304.4
			c0-0.9-0.5-1.5-1.3-1.5c-0.5,0-1,0.3-1.3,0.8c-0.1,0.1-0.1,0.2-0.1,0.4c0,1.1,0.5,1.9,1.4,1.9C550.5,305.9,551,305.3,551,304.4z"
			/>
		<path class="st0" d="M556.6,300.7h-2.5l-0.2,1.7c0.2,0,0.3,0,0.5,0c0.5,0,1,0.1,1.4,0.3c0.5,0.3,0.9,0.8,0.9,1.7
			c0,1.3-1,2.2-2.4,2.2c-0.7,0-1.3-0.2-1.6-0.4l0.2-0.7c0.3,0.2,0.8,0.4,1.4,0.4c0.8,0,1.5-0.5,1.5-1.4c0-0.8-0.6-1.4-1.9-1.4
			c-0.4,0-0.7,0-0.9,0.1l0.4-3.1h3.1V300.7z"/>
	</g>
</g>
<g>
	<g>
		<path class="st0" d="M564.6,302.1c0.2-0.8,0.7-1.9,0.9-2.4l0.6-0.1c-0.2,0.6-0.5,1.6-0.6,2.3L564.6,302.1z"/>
		<path class="st0" d="M570.4,300.6c-0.2,0-0.4,0-0.7,0c-1.4,0.2-2.1,1.2-2.3,2.3h0c0.3-0.4,0.8-0.7,1.6-0.7c1.1,0,2,0.8,2,2.1
			c0,1.2-0.8,2.3-2.2,2.3c-1.4,0-2.3-1.1-2.3-2.8c0-1.3,0.5-2.3,1.1-2.9c0.5-0.5,1.3-0.9,2.1-1c0.3,0,0.5,0,0.6,0V300.6z
			 M570.2,304.4c0-0.9-0.5-1.5-1.3-1.5c-0.5,0-1,0.3-1.3,0.8c-0.1,0.1-0.1,0.2-0.1,0.4c0,1.1,0.5,1.9,1.4,1.9
			C569.7,305.9,570.2,305.3,570.2,304.4z"/>
		<path class="st0" d="M575.6,300.6c-0.2,0-0.4,0-0.7,0c-1.4,0.2-2.1,1.2-2.3,2.3h0c0.3-0.4,0.8-0.7,1.6-0.7c1.1,0,2,0.8,2,2.1
			c0,1.2-0.8,2.3-2.2,2.3c-1.4,0-2.3-1.1-2.3-2.8c0-1.3,0.5-2.3,1.1-2.9c0.5-0.5,1.3-0.9,2.1-1c0.3,0,0.5,0,0.6,0V300.6z
			 M575.3,304.4c0-0.9-0.5-1.5-1.3-1.5c-0.5,0-1,0.3-1.3,0.8c-0.1,0.1-0.1,0.2-0.1,0.4c0,1.1,0.5,1.9,1.4,1.9
			C574.8,305.9,575.3,305.3,575.3,304.4z"/>
	</g>
</g>
<g>
	<g>
		<path class="st0" d="M582.9,302.1c0.2-0.8,0.7-1.9,0.9-2.4l0.6-0.1c-0.2,0.6-0.5,1.6-0.6,2.3L582.9,302.1z"/>
		<path class="st0" d="M588.8,300.6c-0.2,0-0.4,0-0.7,0c-1.4,0.2-2.1,1.2-2.3,2.3h0c0.3-0.4,0.8-0.7,1.6-0.7c1.1,0,2,0.8,2,2.1
			c0,1.2-0.8,2.3-2.2,2.3c-1.4,0-2.3-1.1-2.3-2.8c0-1.3,0.5-2.3,1.1-2.9c0.5-0.5,1.3-0.9,2.1-1c0.3,0,0.5,0,0.6,0V300.6z
			 M588.5,304.4c0-0.9-0.5-1.5-1.3-1.5c-0.5,0-1,0.3-1.3,0.8c-0.1,0.1-0.1,0.2-0.1,0.4c0,1.1,0.5,1.9,1.4,1.9
			C588,305.9,588.5,305.3,588.5,304.4z"/>
		<path class="st0" d="M594.4,300v0.6l-2.8,5.9h-0.9l2.8-5.7v0h-3.2V300H594.4z"/>
	</g>
</g>
<g>
	<g>
		<path class="st0" d="M602.5,302.1c0.2-0.8,0.7-1.9,0.9-2.4l0.6-0.1c-0.2,0.6-0.5,1.6-0.6,2.3L602.5,302.1z"/>
		<path class="st0" d="M608.3,300.6c-0.2,0-0.4,0-0.7,0c-1.4,0.2-2.1,1.2-2.3,2.3h0c0.3-0.4,0.8-0.7,1.6-0.7c1.1,0,2,0.8,2,2.1
			c0,1.2-0.8,2.3-2.2,2.3c-1.4,0-2.3-1.1-2.3-2.8c0-1.3,0.5-2.3,1.1-2.9c0.5-0.5,1.3-0.9,2.1-1c0.3,0,0.5,0,0.6,0V300.6z
			 M608.1,304.4c0-0.9-0.5-1.5-1.3-1.5c-0.5,0-1,0.3-1.3,0.8c-0.1,0.1-0.1,0.2-0.1,0.4c0,1.1,0.5,1.9,1.4,1.9
			C607.6,305.9,608.1,305.3,608.1,304.4z"/>
		<path class="st0" d="M609.7,304.8c0-0.8,0.5-1.4,1.3-1.7l0,0c-0.7-0.3-1-0.9-1-1.5c0-1,0.9-1.7,2-1.7c1.3,0,1.9,0.8,1.9,1.6
			c0,0.5-0.3,1.1-1.1,1.5v0c0.8,0.3,1.3,0.9,1.3,1.7c0,1.1-1,1.9-2.2,1.9C610.5,306.6,609.7,305.8,609.7,304.8z M613.2,304.8
			c0-0.8-0.5-1.2-1.4-1.4c-0.8,0.2-1.2,0.7-1.2,1.3c0,0.7,0.5,1.2,1.3,1.2C612.7,306,613.2,305.5,613.2,304.8z M610.8,301.6
			c0,0.6,0.5,1,1.2,1.2c0.6-0.2,1-0.6,1-1.2c0-0.5-0.3-1.1-1.1-1.1C611.2,300.5,610.8,301,610.8,301.6z"/>
	</g>
</g>
<g>
	<g>
		<path class="st0" d="M621.1,302.1c0.2-0.8,0.7-1.9,0.9-2.4l0.6-0.1c-0.2,0.6-0.5,1.6-0.6,2.3L621.1,302.1z"/>
		<path class="st0" d="M626.9,300.6c-0.2,0-0.4,0-0.7,0c-1.4,0.2-2.1,1.2-2.3,2.3h0c0.3-0.4,0.8-0.7,1.6-0.7c1.1,0,2,0.8,2,2.1
			c0,1.2-0.8,2.3-2.2,2.3c-1.4,0-2.3-1.1-2.3-2.8c0-1.3,0.5-2.3,1.1-2.9c0.5-0.5,1.3-0.9,2.1-1c0.3,0,0.5,0,0.6,0V300.6z
			 M626.7,304.4c0-0.9-0.5-1.5-1.3-1.5c-0.5,0-1,0.3-1.3,0.8c-0.1,0.1-0.1,0.2-0.1,0.4c0,1.1,0.5,1.9,1.4,1.9
			C626.2,305.9,626.7,305.3,626.7,304.4z"/>
		<path class="st0" d="M628.9,305.9c0.2,0,0.4,0,0.7,0c0.5-0.1,1-0.3,1.4-0.6c0.4-0.4,0.7-1,0.9-1.7h0c-0.4,0.4-0.9,0.7-1.5,0.7
			c-1.2,0-1.9-0.9-1.9-2c0-1.2,0.9-2.3,2.2-2.3c1.3,0,2.1,1.1,2.1,2.7c0,1.4-0.5,2.4-1.1,3c-0.5,0.5-1.2,0.8-1.9,0.9
			c-0.3,0-0.6,0.1-0.8,0V305.9z M629.2,302.1c0,0.8,0.5,1.4,1.2,1.4c0.6,0,1-0.3,1.3-0.7c0-0.1,0.1-0.2,0.1-0.3c0-1.1-0.4-2-1.3-2
			C629.7,300.6,629.2,301.2,629.2,302.1z"/>
	</g>
</g>
<g>
	<g>
		<path class="st0" d="M640.1,302.1c0.2-0.8,0.7-1.9,0.9-2.4l0.6-0.1c-0.2,0.6-0.5,1.6-0.6,2.3L640.1,302.1z"/>
		<path class="st0" d="M646.4,300v0.6l-2.8,5.9h-0.9l2.8-5.7v0h-3.2V300H646.4z"/>
		<path class="st0" d="M651.7,303.2c0,2.2-0.8,3.4-2.3,3.4c-1.3,0-2.1-1.2-2.1-3.3c0-2.2,0.9-3.4,2.3-3.4
			C650.9,299.9,651.7,301.1,651.7,303.2z M648.1,303.3c0,1.7,0.5,2.6,1.3,2.6c0.9,0,1.3-1,1.3-2.7c0-1.6-0.4-2.6-1.3-2.6
			C648.7,300.6,648.1,301.5,648.1,303.3z"/>
	</g>
</g>
<g>
	<g>
		<path class="st0" d="M658.8,302.1c0.2-0.8,0.7-1.9,0.9-2.4l0.6-0.1c-0.2,0.6-0.5,1.6-0.6,2.3L658.8,302.1z"/>
		<path class="st0" d="M665.2,300v0.6l-2.8,5.9h-0.9l2.8-5.7v0h-3.2V300H665.2z"/>
		<path class="st0" d="M668,300.8L668,300.8l-1.1,0.6l-0.2-0.7l1.4-0.8h0.8v6.5H668V300.8z"/>
	</g>
</g>
<g>
	<g>
		<path class="st0" d="M678.3,302.1c0.2-0.8,0.7-1.9,0.9-2.4l0.6-0.1c-0.2,0.6-0.5,1.6-0.6,2.3L678.3,302.1z"/>
		<path class="st0" d="M684.7,300v0.6l-2.8,5.9H681l2.8-5.7v0h-3.2V300H684.7z"/>
		<path class="st0" d="M685.6,306.5V306l0.7-0.7c1.7-1.6,2.4-2.4,2.4-3.4c0-0.7-0.3-1.3-1.3-1.3c-0.6,0-1.1,0.3-1.4,0.5l-0.3-0.6
			c0.5-0.4,1.1-0.7,1.8-0.7c1.4,0,2,1,2,1.9c0,1.2-0.9,2.2-2.2,3.5l-0.5,0.5v0h2.9v0.7H685.6z"/>
	</g>
</g>
<g>
	<g>
		<path class="st0" d="M696.3,302.1c0.2-0.8,0.7-1.9,0.9-2.4l0.6-0.1c-0.2,0.6-0.5,1.6-0.6,2.3L696.3,302.1z"/>
		<path class="st0" d="M702.7,300v0.6l-2.8,5.9H699l2.8-5.7v0h-3.2V300H702.7z"/>
		<path class="st0" d="M703.8,305.5c0.2,0.2,0.8,0.4,1.4,0.4c1.1,0,1.5-0.7,1.5-1.3c0-0.9-0.8-1.3-1.7-1.3h-0.5v-0.7h0.5
			c0.6,0,1.4-0.3,1.4-1.1c0-0.5-0.3-1-1.1-1c-0.5,0-1,0.2-1.3,0.4l-0.2-0.6c0.3-0.2,1-0.5,1.7-0.5c1.3,0,1.9,0.8,1.9,1.5
			c0,0.7-0.4,1.2-1.2,1.5v0c0.8,0.2,1.4,0.8,1.4,1.7c0,1-0.8,1.9-2.4,1.9c-0.7,0-1.4-0.2-1.7-0.4L703.8,305.5z"/>
	</g>
</g>
<polygon class="st1" points="41.5,290.2 703.5,290.2 703.5,220.9 684.2,194.3 664.8,223.3 646,211.6 627.5,223.3 608,181 
	589.2,176.5 570.2,164.1 552.2,168.3 532.8,164 513.8,193.6 494.8,181.5 475.8,223 457.2,203.8 438,248.5 418.5,215.7 400.2,232.6 
	381,224.2 362.5,247.3 343.8,251.7 324.8,249.9 305.8,257.9 286.8,237.1 267.5,249.6 248.5,247.3 230.2,251.8 211,250 192.5,266.7 
	173.2,260.8 154.5,273 135.5,264.3 116.2,262.5 97.5,273.3 78.8,268.9 60,270.7 41.5,274.9 "/>
<polygon class="st2" points="41.8,274 41.8,238.2 60.8,221.5 98.2,228.8 117.5,218.2 136,222.2 154.8,230.5 173.8,218.2 
	192.7,224.3 211.8,200.5 230.5,202.5 249.5,198 268.2,200.2 287.3,187.7 306.2,208.3 325,195.2 344,204.5 362.8,197 381.8,175.2 
	400.7,183.2 419.7,173.5 438.5,199.5 457.7,160.8 476.7,174.5 495.3,133.5 514.3,140.5 533.2,110.8 552.3,112.7 570.8,111.2 
	589.8,123.8 608.5,128.7 627.8,178.2 646.5,167.5 665.3,179.3 684.5,151.3 703.5,160.3 703.5,222 684.5,194.3 665.3,223.3 
	645.8,210.8 627.3,223.5 608.5,181 589,176.5 570.2,164 551.8,168.3 533.2,164.2 513.7,193.8 495,181.2 476,223.3 457.3,202.7 
	438.2,248.5 418.8,215.5 400.7,232 381.2,224.2 362.3,247.2 343.7,251.3 324.5,249 305.8,257.7 287,236.7 267.7,249 248.5,247.3 
	230,251 211.3,249.3 192.3,266.2 173.2,259.8 154.8,272.3 135.7,264.3 116.5,262 97.3,272.5 78.5,268.5 60,270.7 "/>
<polygon class="st3" points="41.6,209.2 41.6,238 60.5,221.4 97.6,228.6 116.8,218 135.6,222.4 154.4,230.8 173.5,218 192,224.2 
	211.6,200.2 230.5,202.6 249.6,198.1 268.1,200.5 287,187.4 305.6,208.6 324.5,195.5 343.4,204.4 362.9,196.9 381.4,174.9 
	400,183.1 418.9,173.4 438,199.9 457.1,160.6 475.8,174.2 494.6,132.9 513.2,140.5 532.8,110.9 552.4,112.4 570.4,111 589.9,124.2 
	608.4,128.2 627.1,178.5 646.2,167.1 664.9,179.6 684.2,151.2 703.5,160.9 703.5,37.7 683.5,85.6 665.1,111 646.2,95.6 627.2,121.8 
	607.8,79.5 589.2,108.4 570,87.8 551.8,100 532.6,79.4 513.5,112.4 494.6,106.6 476,144 456.6,135.6 437.9,169.6 419.1,143.1 
	400.2,152.8 381.2,144.8 362.2,167 343,170 324.6,165.2 305,178.4 286.5,160.2 267.6,172 248.2,165.4 229.8,178 210.8,170.1 
	192.2,200 172.9,193.6 154,206.5 135.2,172.2 116.4,168.6 97.5,204.5 79.1,200.4 60.2,194.5 "/>
<g>
	<g>
		<polyline class="st4" points="78.6,224.5 60.1,221.4 42.2,237.6 		"/>
		<line class="st4" x1="97.5" y1="228.7" x2="78.6" y2="224.5"/>
		<line class="st4" x1="116.4" y1="218.1" x2="97.5" y2="228.7"/>
		<line class="st4" x1="135.3" y1="222.2" x2="116.4" y2="218.1"/>
		<line class="st4" x1="154.2" y1="230.7" x2="135.3" y2="222.2"/>
		<line class="st4" x1="173.1" y1="217.9" x2="154.2" y2="230.7"/>
		<line class="st4" x1="192.1" y1="224.3" x2="173.1" y2="217.9"/>
		<line class="st4" x1="211" y1="200.3" x2="192.1" y2="224.3"/>
		<line class="st4" x1="229.9" y1="202.4" x2="211" y2="200.3"/>
		<line class="st4" x1="248.8" y1="198.1" x2="229.9" y2="202.4"/>
		<line class="st4" x1="267.7" y1="200.3" x2="248.8" y2="198.1"/>
		<line class="st4" x1="286.6" y1="187.5" x2="267.7" y2="200.3"/>
		<line class="st4" x1="305.5" y1="208.8" x2="286.6" y2="187.5"/>
		<line class="st4" x1="324.5" y1="195.3" x2="305.5" y2="208.8"/>
		<line class="st4" x1="343.4" y1="204.4" x2="324.5" y2="195.3"/>
		<line class="st4" x1="362.3" y1="197.1" x2="343.4" y2="204.4"/>
		<line class="st4" x1="381.2" y1="174.7" x2="362.3" y2="197.1"/>
		<line class="st4" x1="400.1" y1="183.2" x2="381.2" y2="174.7"/>
		<line class="st4" x1="419" y1="173.2" x2="400.1" y2="183.2"/>
		<line class="st4" x1="437.9" y1="200.3" x2="419" y2="173.2"/>
		<line class="st4" x1="456.8" y1="160.4" x2="437.9" y2="200.3"/>
		<line class="st4" x1="475.8" y1="174.7" x2="456.8" y2="160.4"/>
		<line class="st4" x1="494.7" y1="133.1" x2="475.8" y2="174.7"/>
		<line class="st4" x1="513.6" y1="140.9" x2="494.7" y2="133.1"/>
		<line class="st4" x1="532.5" y1="111" x2="513.6" y2="140.9"/>
		<line class="st4" x1="551.4" y1="112.3" x2="532.5" y2="111"/>
		<line class="st4" x1="570.3" y1="111" x2="551.4" y2="112.3"/>
		<line class="st4" x1="589.2" y1="123.8" x2="570.3" y2="111"/>
		<line class="st4" x1="608.2" y1="128.1" x2="589.2" y2="123.8"/>
		<line class="st4" x1="627.1" y1="178.7" x2="608.2" y2="128.1"/>
		<line class="st4" x1="646" y1="166.9" x2="627.1" y2="178.7"/>
		<line class="st4" x1="664.9" y1="179.7" x2="646" y2="166.9"/>
		<line class="st4" x1="683.8" y1="150.9" x2="664.9" y2="179.7"/>
		<line class="st4" x1="702.7" y1="160.4" x2="683.8" y2="150.9"/>
	</g>
</g>
<g>
	<g>
		<polyline class="st5" points="78.6,200.2 60.1,194.1 42.2,209.3 		"/>
		<line class="st5" x1="97.5" y1="204.4" x2="78.6" y2="200.2"/>
		<line class="st5" x1="116.4" y1="168.4" x2="97.5" y2="204.4"/>
		<line class="st5" x1="135.3" y1="172.5" x2="116.4" y2="168.4"/>
		<line class="st5" x1="154.2" y1="206.4" x2="135.3" y2="172.5"/>
		<line class="st5" x1="173.1" y1="193.6" x2="154.2" y2="206.4"/>
		<line class="st5" x1="192.1" y1="200" x2="173.1" y2="193.6"/>
		<line class="st5" x1="211" y1="170" x2="192.1" y2="200"/>
		<line class="st5" x1="229.9" y1="178.1" x2="211" y2="170"/>
		<line class="st5" x1="248.8" y1="164.8" x2="229.9" y2="178.1"/>
		<line class="st5" x1="267.7" y1="172" x2="248.8" y2="164.8"/>
		<line class="st5" x1="286.6" y1="160.2" x2="267.7" y2="172"/>
		<line class="st5" x1="305.5" y1="178.5" x2="286.6" y2="160.2"/>
		<line class="st5" x1="324.5" y1="165" x2="305.5" y2="178.5"/>
		<line class="st5" x1="343.4" y1="170.1" x2="324.5" y2="165"/>
		<line class="st5" x1="362.3" y1="166.8" x2="343.4" y2="170.1"/>
		<line class="st5" x1="381.2" y1="144.4" x2="362.3" y2="166.8"/>
		<line class="st5" x1="400.1" y1="152.9" x2="381.2" y2="144.4"/>
		<line class="st5" x1="419" y1="142.9" x2="400.1" y2="152.9"/>
		<line class="st5" x1="437.9" y1="170" x2="419" y2="142.9"/>
		<line class="st5" x1="456.8" y1="135.1" x2="437.9" y2="170"/>
		<line class="st5" x1="475.8" y1="144.4" x2="456.8" y2="135.1"/>
		<line class="st5" x1="494.7" y1="106.8" x2="475.8" y2="144.4"/>
		<line class="st5" x1="513.6" y1="112.6" x2="494.7" y2="106.8"/>
		<line class="st5" x1="532.5" y1="79.2" x2="513.6" y2="112.6"/>
		<line class="st5" x1="551.4" y1="100" x2="532.5" y2="79.2"/>
		<line class="st5" x1="570.2" y1="87.8" x2="551.4" y2="100"/>
		<line class="st5" x1="589.2" y1="108.5" x2="570.2" y2="87.8"/>
		<line class="st5" x1="608.2" y1="79.2" x2="589.2" y2="108.5"/>
		<line class="st5" x1="627.1" y1="121.8" x2="608.2" y2="79.2"/>
		<line class="st5" x1="646" y1="95.2" x2="627.1" y2="121.8"/>
		<line class="st5" x1="664.9" y1="111" x2="646" y2="95.2"/>
		<line class="st5" x1="683.8" y1="85.2" x2="664.9" y2="111"/>
		<line class="st5" x1="702.7" y1="37.8" x2="683.8" y2="85.2"/>
	</g>
</g>
<g>
	<g>
		<polyline class="st6" points="78.9,268.5 60.4,270.4 42.5,274.6 		"/>
		<line class="st6" x1="97.8" y1="272.7" x2="78.9" y2="268.5"/>
		<line class="st6" x1="116.7" y1="262.1" x2="97.8" y2="272.7"/>
		<line class="st6" x1="135.6" y1="264.2" x2="116.7" y2="262.1"/>
		<line class="st6" x1="154.5" y1="272.7" x2="135.6" y2="264.2"/>
		<line class="st6" x1="173.4" y1="259.9" x2="154.5" y2="272.7"/>
		<line class="st6" x1="192.3" y1="266.3" x2="173.4" y2="259.9"/>
		<line class="st6" x1="211.3" y1="249.3" x2="192.3" y2="266.3"/>
		<line class="st6" x1="230.2" y1="251.4" x2="211.3" y2="249.3"/>
		<line class="st6" x1="249.1" y1="247.1" x2="230.2" y2="251.4"/>
		<line class="st6" x1="268" y1="249.3" x2="249.1" y2="247.1"/>
		<line class="st6" x1="286.9" y1="236.5" x2="268" y2="249.3"/>
		<line class="st6" x1="305.8" y1="257.8" x2="286.9" y2="236.5"/>
		<line class="st6" x1="324.7" y1="249.3" x2="305.8" y2="257.8"/>
		<line class="st6" x1="343.7" y1="251.4" x2="324.7" y2="249.3"/>
		<line class="st6" x1="362.6" y1="247.1" x2="343.7" y2="251.4"/>
		<line class="st6" x1="381.5" y1="223.7" x2="362.6" y2="247.1"/>
		<line class="st6" x1="400.4" y1="232.2" x2="381.5" y2="223.7"/>
		<line class="st6" x1="419.3" y1="215.2" x2="400.4" y2="232.2"/>
		<line class="st6" x1="438.2" y1="249.3" x2="419.3" y2="215.2"/>
		<line class="st6" x1="457.1" y1="202.4" x2="438.2" y2="249.3"/>
		<line class="st6" x1="476" y1="223.7" x2="457.1" y2="202.4"/>
		<line class="st6" x1="495" y1="181.1" x2="476" y2="223.7"/>
		<line class="st6" x1="513.9" y1="193.9" x2="495" y2="181.1"/>
		<line class="st6" x1="532.8" y1="164" x2="513.9" y2="193.9"/>
		<line class="st6" x1="551.7" y1="168.3" x2="532.8" y2="164"/>
		<line class="st6" x1="570.6" y1="164" x2="551.7" y2="168.3"/>
		<line class="st6" x1="589.5" y1="176.8" x2="570.6" y2="164"/>
		<line class="st6" x1="608.4" y1="181.1" x2="589.5" y2="176.8"/>
		<line class="st6" x1="627.4" y1="223.7" x2="608.4" y2="181.1"/>
		<line class="st6" x1="646.3" y1="210.9" x2="627.4" y2="223.7"/>
		<line class="st6" x1="665.2" y1="223.7" x2="646.3" y2="210.9"/>
		<line class="st6" x1="684.1" y1="193.9" x2="665.2" y2="223.7"/>
		<line class="st6" x1="703" y1="220.5" x2="684.1" y2="193.9"/>
	</g>
</g>
<line class="st7" x1="41.5" y1="290" x2="704" y2="290"/>
<g>
	<g>
		<line class="st7" x1="60.4" y1="294.2" x2="60.4" y2="290.4"/>
		<line class="st7" x1="79.3" y1="294.2" x2="79.3" y2="290.4"/>
		<line class="st7" x1="98.2" y1="294.2" x2="98.2" y2="290.4"/>
		<line class="st7" x1="117.1" y1="294.2" x2="117.1" y2="290.4"/>
		<line class="st7" x1="136.1" y1="294.2" x2="136.1" y2="290.4"/>
		<line class="st7" x1="155" y1="294.2" x2="155" y2="290.4"/>
		<line class="st7" x1="173.9" y1="294.2" x2="173.9" y2="290.4"/>
		<line class="st7" x1="192.8" y1="294.2" x2="192.8" y2="290.4"/>
		<line class="st7" x1="211.7" y1="294.2" x2="211.7" y2="290.4"/>
		<line class="st7" x1="230.6" y1="294.2" x2="230.6" y2="290.4"/>
		<line class="st7" x1="249.5" y1="294.2" x2="249.5" y2="290.4"/>
		<line class="st7" x1="268.5" y1="294.2" x2="268.5" y2="290.4"/>
		<line class="st7" x1="287.4" y1="294.2" x2="287.4" y2="290.4"/>
		<line class="st7" x1="306.3" y1="294.2" x2="306.3" y2="290.4"/>
		<line class="st7" x1="325.2" y1="294.2" x2="325.2" y2="290.4"/>
		<line class="st7" x1="344.1" y1="294.2" x2="344.1" y2="290.4"/>
		<line class="st7" x1="363" y1="294.2" x2="363" y2="290.4"/>
		<line class="st7" x1="381.9" y1="294.2" x2="381.9" y2="290.4"/>
		<line class="st7" x1="400.9" y1="294.2" x2="400.9" y2="290.4"/>
		<line class="st7" x1="419.8" y1="294.2" x2="419.8" y2="290.4"/>
		<line class="st7" x1="438.7" y1="294.2" x2="438.7" y2="290.4"/>
		<line class="st7" x1="457.6" y1="294.2" x2="457.6" y2="290.4"/>
		<line class="st7" x1="476.5" y1="294.2" x2="476.5" y2="290.4"/>
		<line class="st7" x1="495.4" y1="294.2" x2="495.4" y2="290.4"/>
		<line class="st7" x1="514.3" y1="294.2" x2="514.3" y2="290.4"/>
		<line class="st7" x1="533.3" y1="294.2" x2="533.3" y2="290.4"/>
		<line class="st7" x1="552.2" y1="294.2" x2="552.2" y2="290.4"/>
		<line class="st7" x1="571.1" y1="294.2" x2="571.1" y2="290.4"/>
		<line class="st7" x1="590" y1="294.2" x2="590" y2="290.4"/>
		<line class="st7" x1="608.9" y1="294.2" x2="608.9" y2="290.4"/>
		<line class="st7" x1="627.8" y1="294.2" x2="627.8" y2="290.4"/>
		<line class="st7" x1="646.7" y1="294.2" x2="646.7" y2="290.4"/>
		<line class="st7" x1="665.7" y1="294.2" x2="665.7" y2="290.4"/>
		<line class="st7" x1="684.6" y1="294.2" x2="684.6" y2="290.4"/>
		<line class="st7" x1="703.5" y1="294.2" x2="703.5" y2="290.4"/>
	</g>
</g>
<g>
	<g>
		<path class="st0" d="M32.3,290.2c0,2.2-0.8,3.4-2.3,3.4c-1.3,0-2.1-1.2-2.1-3.3c0-2.2,0.9-3.4,2.3-3.4
			C31.5,287,32.3,288.2,32.3,290.2z M28.8,290.3c0,1.7,0.5,2.6,1.3,2.6c0.9,0,1.3-1,1.3-2.7c0-1.6-0.4-2.6-1.3-2.6
			C29.3,287.6,28.8,288.6,28.8,290.3z"/>
	</g>
	<g>
		<path class="st0" d="M26.7,242.5h-2.5l-0.2,1.7c0.1,0,0.3,0,0.5,0c0.5,0,1,0.1,1.4,0.3c0.5,0.3,0.9,0.8,0.9,1.7
			c0,1.3-1,2.2-2.4,2.2c-0.7,0-1.3-0.2-1.6-0.4l0.2-0.7c0.3,0.2,0.8,0.4,1.4,0.4c0.8,0,1.5-0.5,1.5-1.4c0-0.8-0.6-1.4-1.9-1.4
			c-0.4,0-0.7,0-0.9,0.1l0.4-3.1h3.1V242.5z"/>
		<path class="st0" d="M32.3,244.9c0,2.2-0.8,3.4-2.3,3.4c-1.3,0-2.1-1.2-2.1-3.3c0-2.2,0.9-3.4,2.3-3.4
			C31.5,241.6,32.3,242.8,32.3,244.9z M28.8,245c0,1.7,0.5,2.6,1.3,2.6c0.9,0,1.3-1,1.3-2.7c0-1.6-0.4-2.6-1.3-2.6
			C29.3,242.3,28.8,243.2,28.8,245z"/>
	</g>
	<g>
		<path class="st0" d="M19.6,197.2L19.6,197.2l-1.1,0.6l-0.2-0.7l1.4-0.8h0.7v6.5h-0.8V197.2z"/>
		<path class="st0" d="M27.2,199.6c0,2.2-0.8,3.4-2.3,3.4c-1.3,0-2.1-1.2-2.1-3.3c0-2.2,0.9-3.4,2.3-3.4
			C26.4,196.3,27.2,197.5,27.2,199.6z M23.6,199.7c0,1.7,0.5,2.6,1.3,2.6c0.9,0,1.3-1,1.3-2.7c0-1.6-0.4-2.6-1.3-2.6
			C24.2,197,23.6,197.9,23.6,199.7z"/>
		<path class="st0" d="M32.3,199.6c0,2.2-0.8,3.4-2.3,3.4c-1.3,0-2.1-1.2-2.1-3.3c0-2.2,0.9-3.4,2.3-3.4
			C31.5,196.3,32.3,197.5,32.3,199.6z M28.8,199.7c0,1.7,0.5,2.6,1.3,2.6c0.9,0,1.3-1,1.3-2.7c0-1.6-0.4-2.6-1.3-2.6
			C29.3,197,28.8,197.9,28.8,199.7z"/>
	</g>
	<g>
		<path class="st0" d="M19.6,151.9L19.6,151.9l-1.1,0.6l-0.2-0.7l1.4-0.8h0.7v6.5h-0.8V151.9z"/>
		<path class="st0" d="M26.7,151.8h-2.5l-0.2,1.7c0.1,0,0.3,0,0.5,0c0.5,0,1,0.1,1.4,0.3c0.5,0.3,0.9,0.8,0.9,1.7
			c0,1.3-1,2.2-2.4,2.2c-0.7,0-1.3-0.2-1.6-0.4l0.2-0.7c0.3,0.2,0.8,0.4,1.4,0.4c0.8,0,1.5-0.5,1.5-1.4c0-0.8-0.6-1.4-1.9-1.4
			c-0.4,0-0.7,0-0.9,0.1l0.4-3.1h3.1V151.8z"/>
		<path class="st0" d="M32.3,154.2c0,2.2-0.8,3.4-2.3,3.4c-1.3,0-2.1-1.2-2.1-3.3c0-2.2,0.9-3.4,2.3-3.4
			C31.5,151,32.3,152.2,32.3,154.2z M28.8,154.3c0,1.7,0.5,2.6,1.3,2.6c0.9,0,1.3-1,1.3-2.7c0-1.6-0.4-2.6-1.3-2.6
			C29.3,151.6,28.8,152.6,28.8,154.3z"/>
	</g>
	<g>
		<path class="st0" d="M17.7,112.2v-0.5l0.7-0.7c1.7-1.6,2.4-2.4,2.4-3.4c0-0.7-0.3-1.3-1.3-1.3c-0.6,0-1.1,0.3-1.4,0.5l-0.3-0.6
			c0.4-0.4,1.1-0.7,1.8-0.7c1.4,0,2,1,2,1.9c0,1.2-0.9,2.2-2.2,3.5l-0.5,0.5v0h2.9v0.7H17.7z"/>
		<path class="st0" d="M27.2,108.9c0,2.2-0.8,3.4-2.3,3.4c-1.3,0-2.1-1.2-2.1-3.3c0-2.2,0.9-3.4,2.3-3.4
			C26.4,105.6,27.2,106.8,27.2,108.9z M23.6,109c0,1.7,0.5,2.6,1.3,2.6c0.9,0,1.3-1,1.3-2.7c0-1.6-0.4-2.6-1.3-2.6
			C24.2,106.3,23.6,107.2,23.6,109z"/>
		<path class="st0" d="M32.3,108.9c0,2.2-0.8,3.4-2.3,3.4c-1.3,0-2.1-1.2-2.1-3.3c0-2.2,0.9-3.4,2.3-3.4
			C31.5,105.6,32.3,106.8,32.3,108.9z M28.8,109c0,1.7,0.5,2.6,1.3,2.6c0.9,0,1.3-1,1.3-2.7c0-1.6-0.4-2.6-1.3-2.6
			C29.3,106.3,28.8,107.2,28.8,109z"/>
	</g>
	<g>
		<path class="st0" d="M17.7,66.9v-0.5l0.7-0.7c1.7-1.6,2.4-2.4,2.4-3.4c0-0.7-0.3-1.3-1.3-1.3c-0.6,0-1.1,0.3-1.4,0.5l-0.3-0.6
			c0.4-0.4,1.1-0.7,1.8-0.7c1.4,0,2,1,2,1.9c0,1.2-0.9,2.2-2.2,3.5l-0.5,0.5v0h2.9v0.7H17.7z"/>
		<path class="st0" d="M26.7,61.1h-2.5L24,62.8c0.1,0,0.3,0,0.5,0c0.5,0,1,0.1,1.4,0.4c0.5,0.3,0.9,0.8,0.9,1.7c0,1.3-1,2.2-2.4,2.2
			c-0.7,0-1.3-0.2-1.6-0.4l0.2-0.7c0.3,0.2,0.8,0.4,1.4,0.4c0.8,0,1.5-0.5,1.5-1.4c0-0.8-0.6-1.4-1.9-1.4c-0.4,0-0.7,0-0.9,0.1
			l0.4-3.1h3.1V61.1z"/>
		<path class="st0" d="M32.3,63.6c0,2.2-0.8,3.4-2.3,3.4c-1.3,0-2.1-1.2-2.1-3.3c0-2.2,0.9-3.4,2.3-3.4
			C31.5,60.3,32.3,61.5,32.3,63.6z M28.8,63.7c0,1.7,0.5,2.6,1.3,2.6c0.9,0,1.3-1,1.3-2.7c0-1.6-0.4-2.6-1.3-2.6
			C29.3,61,28.8,61.9,28.8,63.7z"/>
	</g>
	<g>
		<path class="st0" d="M17.9,20.6c0.2,0.2,0.8,0.4,1.4,0.4c1.1,0,1.5-0.7,1.5-1.3c0-0.9-0.8-1.3-1.7-1.3h-0.5v-0.7h0.5
			c0.6,0,1.4-0.3,1.4-1.1c0-0.5-0.3-1-1.1-1c-0.5,0-1,0.2-1.3,0.4l-0.2-0.6c0.3-0.2,1-0.5,1.7-0.5c1.3,0,1.9,0.8,1.9,1.5
			c0,0.7-0.4,1.2-1.2,1.5v0c0.8,0.2,1.4,0.8,1.4,1.7c0,1-0.8,1.9-2.4,1.9c-0.7,0-1.4-0.2-1.7-0.4L17.9,20.6z"/>
		<path class="st0" d="M27.2,18.2c0,2.2-0.8,3.4-2.3,3.4c-1.3,0-2.1-1.2-2.1-3.3c0-2.2,0.9-3.4,2.3-3.4C26.4,15,27.2,16.2,27.2,18.2
			z M23.6,18.3c0,1.7,0.5,2.6,1.3,2.6c0.9,0,1.3-1,1.3-2.7c0-1.6-0.4-2.6-1.3-2.6C24.2,15.6,23.6,16.6,23.6,18.3z"/>
		<path class="st0" d="M32.3,18.2c0,2.2-0.8,3.4-2.3,3.4c-1.3,0-2.1-1.2-2.1-3.3c0-2.2,0.9-3.4,2.3-3.4C31.5,15,32.3,16.2,32.3,18.2
			z M28.8,18.3c0,1.7,0.5,2.6,1.3,2.6c0.9,0,1.3-1,1.3-2.7c0-1.6-0.4-2.6-1.3-2.6C29.3,15.6,28.8,16.6,28.8,18.3z"/>
	</g>
</g>
<line class="st7" x1="41.5" y1="293" x2="41.5" y2="19"/>
<g>
	<line class="st7" x1="35.9" y1="245.1" x2="41.9" y2="245.1"/>
	<line class="st7" x1="35.9" y1="199.7" x2="41.9" y2="199.7"/>
	<line class="st7" x1="35.9" y1="154.4" x2="41.9" y2="154.4"/>
	<line class="st7" x1="35.9" y1="109.1" x2="41.9" y2="109.1"/>
	<line class="st7" x1="35.9" y1="63.7" x2="41.9" y2="63.7"/>
	<line class="st7" x1="35.9" y1="18.4" x2="41.9" y2="18.4"/>
</g>
<g>
</g>
<g>
</g>
<g>
</g>
<g>
</g>
<g>
</g>
<g>
</g>
<g>
</g>
<g>
</g>
<g>
</g>
<g>
</g>
</svg>
